<?xml version="1.0" encoding="utf-8"?>
<!-- Generator: Adobe Illustrator 26.3.1, SVG Export Plug-In . SVG Version: 6.00 Build 0)  -->
<svg version="1.0" id="Layer_1" xmlns="http://www.w3.org/2000/svg" xmlns:xlink="http://www.w3.org/1999/xlink" x="0px" y="0px"
	 width="231px" height="49px" viewBox="0 0 231 49" style="enable-background:new 0 0 231 49;" xml:space="preserve">
<style type="text/css">
	.st0{fill:#3D55A2;}
	.st1{fill:url(#SVGID_1_);}
</style>
<g>
	<g>
		<g>
			<path class="st0" d="M55.81,21.5v15.6h3.46V21.5H55.81z M49.58,14.82v3.33h16.1v-3.33H49.58z"/>
			<path class="st0" d="M80.27,34.91h-0.03c-0.68,0.66-1.61,1.24-2.8,1.75c-1.19,0.51-2.43,0.76-3.72,0.76
				c-1.74,0-3.27-0.37-4.6-1.1c-1.33-0.73-2.36-1.74-3.1-3.02c-0.74-1.29-1.11-2.74-1.11-4.38c0-1.87,0.39-3.46,1.18-4.79
				c0.79-1.33,1.83-2.34,3.12-3.06c1.29-0.71,2.71-1.06,4.23-1.06c1.4,0,2.67,0.34,3.82,1.03c1.15,0.69,2.06,1.64,2.74,2.85
				c0.68,1.21,1.02,2.62,1.02,4.23l-0.03,1.4h-12.8c0.19,1.51,0.81,2.7,1.86,3.58c1.05,0.88,2.38,1.32,3.99,1.32
				c1.17,0,2.11-0.22,2.83-0.65c0.72-0.44,1.31-0.85,1.78-1.26L80.27,34.91z M73.43,23.04c-1.25,0-2.34,0.29-3.28,0.88
				c-0.93,0.58-1.55,1.59-1.85,3.01h9.36V26.7c-0.06-0.72-0.3-1.36-0.72-1.91c-0.41-0.55-0.93-0.98-1.54-1.29
				C74.78,23.19,74.13,23.04,73.43,23.04z"/>
			<path class="st0" d="M93.93,23.93c-0.21-0.11-0.47-0.2-0.78-0.27c-0.31-0.08-0.63-0.11-0.97-0.11c-0.68,0-1.35,0.17-2.01,0.52
				c-0.66,0.35-1.2,0.85-1.64,1.5c-0.44,0.65-0.65,1.42-0.65,2.31v9.23h-3.31V20.4h3.31v3.15c0.47-1.02,1.17-1.86,2.12-2.52
				c0.94-0.66,1.94-0.99,2.98-0.99c0.78,0,1.39,0.11,1.81,0.32L93.93,23.93z"/>
			<path class="st0" d="M105.9,20.11c1.38,0,2.48,0.31,3.31,0.94s1.42,1.48,1.78,2.56c0.3-0.53,0.73-1.07,1.31-1.61
				c0.57-0.54,1.24-0.99,2.01-1.35c0.76-0.36,1.58-0.54,2.45-0.54c1.44,0,2.57,0.31,3.37,0.94c0.81,0.63,1.37,1.46,1.7,2.52
				c0.33,1.05,0.49,2.22,0.49,3.52v10.03h-3.31v-9.84c0-1.23-0.23-2.23-0.7-2.99c-0.47-0.76-1.35-1.15-2.64-1.15
				c-1.23,0-2.24,0.39-3.04,1.16c-0.8,0.77-1.19,1.72-1.19,2.82v10h-3.31v-9.9c0-1.19-0.26-2.17-0.76-2.93
				c-0.51-0.76-1.35-1.15-2.52-1.15c-0.81,0-1.53,0.18-2.16,0.54c-0.64,0.36-1.14,0.83-1.5,1.42c-0.36,0.58-0.54,1.24-0.54,1.96
				v10.06h-3.31V20.4h3.31v2.67c0.51-0.76,1.23-1.45,2.15-2.05C103.72,20.41,104.75,20.11,105.9,20.11z"/>
			<path class="st0" d="M128.91,16.77c-0.74,0-1.29-0.19-1.66-0.57c-0.36-0.38-0.54-0.88-0.54-1.5c0-0.53,0.18-1.01,0.54-1.43
				s0.91-0.64,1.66-0.64c0.74,0,1.29,0.19,1.66,0.57c0.36,0.38,0.54,0.88,0.54,1.49c0,0.53-0.18,1.01-0.54,1.43
				C130.21,16.55,129.66,16.77,128.91,16.77z M130.6,37.11h-3.28V20.4h3.28V37.11z"/>
			<path class="st0" d="M144.32,20.05c1.51,0,2.67,0.31,3.5,0.92c0.83,0.62,1.41,1.44,1.74,2.48c0.33,1.04,0.49,2.2,0.49,3.47v10.19
				h-3.28v-9.96c0-0.81-0.11-1.53-0.32-2.16c-0.21-0.64-0.57-1.14-1.08-1.5c-0.51-0.36-1.22-0.51-2.13-0.45
				c-0.85,0-1.6,0.18-2.26,0.54c-0.66,0.36-1.18,0.84-1.56,1.43s-0.57,1.25-0.57,1.97v10.12h-3.28V20.4h3.28v2.64
				c0.51-0.79,1.25-1.48,2.23-2.09C142.05,20.35,143.13,20.05,144.32,20.05z"/>
			<path class="st0" d="M165.91,30.46V20.4h3.28v16.71h-3.28v-2.67c-0.49,0.79-1.2,1.48-2.15,2.09c-0.94,0.6-2.08,0.91-3.39,0.91
				c-1.74,0-3.15-0.59-4.23-1.78c-1.08-1.19-1.62-2.83-1.62-4.94V20.4h3.28v9.42c0,0.85,0.13,1.63,0.4,2.36
				c0.27,0.72,0.69,1.3,1.27,1.73c0.58,0.44,1.33,0.65,2.24,0.65c1.15,0,2.13-0.36,2.96-1.08
				C165.49,32.76,165.91,31.75,165.91,30.46z"/>
			<path class="st0" d="M183.42,24.79c-0.59-0.59-1.27-1.08-2.02-1.46c-0.75-0.38-1.45-0.58-2.08-0.58c-0.45,0-0.89,0.05-1.32,0.16
				c-0.44,0.11-0.8,0.3-1.1,0.59c-0.3,0.29-0.45,0.71-0.45,1.26c0.02,0.76,0.37,1.3,1.04,1.62c0.67,0.32,1.5,0.61,2.5,0.86
				c0.87,0.23,1.72,0.53,2.55,0.88c0.83,0.35,1.51,0.86,2.05,1.53s0.81,1.61,0.81,2.82c0,1.04-0.29,1.93-0.88,2.67
				c-0.58,0.74-1.34,1.31-2.26,1.7c-0.92,0.39-1.89,0.59-2.91,0.59c-1.21,0-2.4-0.22-3.58-0.65c-1.18-0.44-2.18-1.18-3.01-2.24
				l2.23-1.91c0.57,0.66,1.23,1.17,1.96,1.54c0.73,0.37,1.63,0.56,2.69,0.56c0.4,0,0.81-0.07,1.21-0.21
				c0.4-0.14,0.75-0.36,1.04-0.67c0.29-0.31,0.43-0.73,0.43-1.26c0-0.51-0.15-0.91-0.46-1.19c-0.31-0.29-0.72-0.52-1.23-0.7
				c-0.51-0.18-1.07-0.34-1.69-0.49c-0.91-0.26-1.81-0.57-2.69-0.94c-0.88-0.37-1.61-0.9-2.2-1.59c-0.58-0.69-0.87-1.63-0.87-2.82
				c0-1,0.28-1.85,0.84-2.56c0.56-0.71,1.3-1.26,2.21-1.66c0.91-0.39,1.89-0.59,2.93-0.59c1,0,2.08,0.21,3.25,0.64
				c1.17,0.42,2.13,1.1,2.9,2.04L183.42,24.79z"/>
			<path class="st0" d="M199.91,14.83c1.72,0,3.23,0.29,4.54,0.88c1.31,0.58,2.39,1.39,3.26,2.42c0.87,1.03,1.53,2.22,1.97,3.57
				s0.67,2.77,0.67,4.28c0,2.04-0.39,3.9-1.18,5.59c-0.78,1.69-1.95,3.04-3.5,4.04c-1.55,1.01-3.47,1.51-5.76,1.51h-8.72V14.83
				H199.91z M199.75,33.8c1.68,0,3.04-0.35,4.08-1.06c1.04-0.71,1.8-1.66,2.29-2.85c0.49-1.19,0.73-2.49,0.73-3.92
				c0-1.4-0.24-2.69-0.73-3.88c-0.49-1.19-1.25-2.14-2.29-2.87c-1.04-0.72-2.4-1.08-4.08-1.08h-5.12V33.8H199.75z"/>
			<path class="st0" d="M222.63,14.83c2.16,0,3.8,0.48,4.9,1.43c1.1,0.95,1.66,2.34,1.66,4.17c0,1-0.24,1.89-0.72,2.68
				c-0.48,0.79-1.18,1.4-2.12,1.84c0.7,0.23,1.35,0.59,1.96,1.07c0.6,0.48,1.1,1.09,1.48,1.83c0.38,0.74,0.57,1.65,0.57,2.71
				c0,1.3-0.22,2.37-0.67,3.22c-0.45,0.85-1.03,1.52-1.75,2.01c-0.72,0.49-1.52,0.83-2.39,1.04c-0.87,0.2-1.74,0.3-2.61,0.3h-9.61
				V14.83H222.63z M222.05,18.14h-5.28v5.92h5.67c0.87-0.02,1.64-0.28,2.31-0.8c0.67-0.51,1-1.23,1-2.17c0-1.06-0.35-1.82-1.07-2.27
				C223.97,18.36,223.09,18.14,222.05,18.14z M222.59,27.37h-5.83v6.43h5.98c1.21,0,2.2-0.27,2.96-0.81
				c0.76-0.54,1.15-1.37,1.15-2.5c0-0.81-0.22-1.43-0.67-1.88c-0.45-0.45-0.99-0.76-1.64-0.95
				C223.91,27.46,223.25,27.37,222.59,27.37z"/>
		</g>
	</g>
</g>
<linearGradient id="SVGID_1_" gradientUnits="userSpaceOnUse" x1="3.3166" y1="13.9928" x2="41.5445" y2="36.0637">
	<stop  offset="0" style="stop-color:#FFDF79"/>
	<stop  offset="0.5" style="stop-color:#C178AF"/>
	<stop  offset="0.8" style="stop-color:#3D54A0"/>
</linearGradient>
<path class="st1" d="M18.49,25.03c0,2.17,1.77,3.94,3.94,3.94c2.17,0,3.94-1.77,3.94-3.94c0-2.17-1.77-3.94-3.94-3.94
	C20.26,21.09,18.49,22.86,18.49,25.03z M23.95,25.03c0,0.84-0.68,1.52-1.52,1.52c-0.84,0-1.52-0.68-1.52-1.52
	c0-0.84,0.68-1.52,1.52-1.52C23.27,23.51,23.95,24.19,23.95,25.03z M29.24,14.03c-2.04-1.27-4.4-1.94-6.81-1.94
	c-7.13,0-12.93,5.8-12.93,12.93c0,2.39,0.66,4.73,1.91,6.76c0.35,0.57,0.17,1.31-0.4,1.66c-0.2,0.12-0.42,0.18-0.63,0.18
	c-0.41,0-0.8-0.2-1.03-0.58c-1.48-2.41-2.26-5.18-2.26-8.02c0-8.46,6.88-15.35,15.35-15.35c2.86,0,5.66,0.79,8.08,2.3
	c0.57,0.35,0.74,1.1,0.39,1.66C30.55,14.21,29.81,14.38,29.24,14.03z M35.61,17.16c1.42,2.37,2.17,5.09,2.17,7.87
	c0,8.46-6.88,15.35-15.35,15.35c-2.97,0-5.86-0.85-8.34-2.46c-0.56-0.36-0.72-1.11-0.36-1.67c0.36-0.56,1.11-0.72,1.67-0.36
	c2.09,1.36,4.52,2.07,7.03,2.07c7.13,0,12.93-5.8,12.93-12.93c0-2.34-0.63-4.63-1.83-6.63c-0.34-0.57-0.16-1.31,0.42-1.65
	C34.53,16.4,35.27,16.59,35.61,17.16z M36.93,41.99c0,1.23-1,2.23-2.23,2.23c-0.35,0-0.67-0.09-0.97-0.23
	c-3.41,2.03-7.31,3.11-11.3,3.11c-12.17,0-22.07-9.9-22.07-22.07c0-4.28,1.22-8.42,3.54-11.99c0.36-0.56,1.11-0.72,1.67-0.36
	c0.56,0.36,0.72,1.11,0.36,1.67c-2.06,3.18-3.15,6.87-3.15,10.68c0,10.84,8.82,19.65,19.65,19.65c3.54,0,7.02-0.95,10.04-2.76
	c0.03-1.2,1.01-2.17,2.22-2.17C35.93,39.76,36.93,40.75,36.93,41.99z M44.5,25.03c0,4.12-1.14,8.14-3.3,11.62
	c-0.23,0.37-0.62,0.57-1.03,0.57c-0.22,0-0.44-0.06-0.64-0.18c-0.57-0.35-0.74-1.1-0.39-1.66c1.92-3.1,2.94-6.68,2.94-10.35
	c0-10.84-8.82-19.65-19.65-19.65c-3.62,0-7.15,0.99-10.22,2.87c-0.06,1.18-1.02,2.12-2.22,2.12c-1.23,0-2.23-1-2.23-2.23
	s1-2.23,2.23-2.23c0.36,0,0.7,0.1,1.01,0.25c3.44-2.09,7.39-3.19,11.43-3.19C34.6,2.96,44.5,12.86,44.5,25.03z"/>
</svg>
